<svg width="35" height="35" viewBox="0 0 35 35" fill="none" xmlns="http://www.w3.org/2000/svg">
<path d="M17.4999 17.5C18.302 17.5 18.9889 17.2142 19.5605 16.6425C20.1312 16.0718 20.4166 15.3854 20.4166 14.5833C20.4166 13.7812 20.1312 13.0944 19.5605 12.5227C18.9889 11.952 18.302 11.6667 17.4999 11.6667C16.6978 11.6667 16.0114 11.952 15.4408 12.5227C14.8691 13.0944 14.5833 13.7812 14.5833 14.5833C14.5833 15.3854 14.8691 16.0718 15.4408 16.6425C16.0114 17.2142 16.6978 17.5 17.4999 17.5ZM17.4999 32.0833C13.5867 28.7535 10.6642 25.6603 8.73242 22.8039C6.79964 19.9485 5.83325 17.3055 5.83325 14.875C5.83325 11.2292 7.00624 8.32464 9.35221 6.16145C11.6972 3.99825 14.4131 2.91666 17.4999 2.91666C20.5867 2.91666 23.3026 3.99825 25.6476 6.16145C27.9936 8.32464 29.1666 11.2292 29.1666 14.875C29.1666 17.3055 28.2007 19.9485 26.2689 22.8039C24.3361 25.6603 21.4131 28.7535 17.4999 32.0833Z" fill="#9B62E0"/>
</svg>
